Coordinates
version=1
nRows=13
nColumns=40
inDegrees=yes

Units are S.I. units (second, meters, Newtons, ...)
Angles are in degrees.

endheader
time	pelvis_tilt	pelvis_list	pelvis_rotation	pelvis_tx	pelvis_ty	pelvis_tz	hip_flexion_r	hip_adduction_r	hip_rotation_r	knee_angle_r	knee_angle_r_beta	ankle_angle_r	subtalar_angle_r	mtp_angle_r	hip_flexion_l	hip_adduction_l	hip_rotation_l	knee_angle_l	knee_angle_l_beta	ankle_angle_l	subtalar_angle_l	mtp_angle_l	lumbar_extension	lumbar_bending	lumbar_rotation	arm_flex_r	arm_add_r	arm_rot_r	elbow_flex_r	pro_sup_r	wrist_flex_r	wrist_dev_r	arm_flex_l	arm_add_l	arm_rot_l	elbow_flex_l	pro_sup_l	wrist_flex_l	wrist_dev_l
      6.22378571	     -4.66849347	     -4.92041108	     -8.08870275	      1.01016225	      0.92653420	      0.43150739	     23.72272957	     -0.68835431	    -13.87711637	     11.99631591	     11.99631591	     -0.88680365	      4.39314257	      1.42512444	      4.02548655	     -3.15852767	     -9.92359803	     17.88214494	     17.88214494	     19.22368635	    -11.56270788	      0.73140290	    -10.78852671	      5.78455110	      1.54188425	    -16.71360191	    -12.88641303	     -7.83733924	     29.20342480	     46.17500246	      0.00000000	      0.00000000	     34.13699837	    -20.63547711	     -7.37327006	     72.38047551	     47.11762360	      0.00000000	      0.00000000
      6.24257143	     -4.73868440	     -4.69405944	     -8.40743596	      1.01089292	      0.92519322	      0.43426952	     23.54193566	     -0.52564704	    -14.76200150	     10.06770535	     10.06770535	     -0.89357346	      7.89212096	      2.95059990	      3.22989189	     -3.03051951	    -10.60295191	     17.15996804	     17.15996804	     19.12609986	    -10.96216552	     -0.58080789	    -10.69717533	      5.68360247	      1.45329096	    -17.74523821	    -12.54297779	     -8.99820070	     30.18342728	     46.20411504	      0.00000000	      0.00000000	     34.23714574	    -20.90402831	     -8.08490434	     74.32617550	     47.23674408	      0.00000000	      0.00000000
      6.26135714	     -4.74663539	     -4.59594954	     -8.68682080	      1.01187987	      0.92398990	      0.43732265	     23.19120573	     -0.15372157	    -14.84054089	      8.49067781	      8.49067781	     -1.22273504	      9.54189285	      3.43773373	      2.35695966	     -3.00130475	    -11.00810571	     16.50106179	     16.50106179	     19.36320373	    -10.58834832	     -0.95624460	    -10.63042997	      5.71929802	      1.59441943	    -18.26447022	    -12.29568732	     -9.28524707	     30.30908823	     46.21269079	      0.00000000	      0.00000000	     34.67364787	    -21.00895823	     -8.40114235	     75.25906083	     47.28936235	      0.00000000	      0.00000000
      6.28014286	     -4.79133119	     -4.48401151	     -8.92196850	      1.01306015	      0.92262697	      0.44041698	     23.10941114	      0.04213859	    -15.08947423	      7.89693453	      7.89693453	     -1.40930623	     10.91256755	      2.90772993	      1.56014081	     -3.00708277	    -11.59247271	     15.92298739	     15.92298739	     19.47898029	     -9.94763505	     -1.90798379	    -10.55404053	      5.76505629	      1.45960407	    -18.61208574	    -12.05269925	    -10.19542851	     31.14884116	     46.23124870	      0.00000000	      0.00000000	     34.58146499	    -21.14392881	     -9.26375417	     76.95372291	     47.41136754	      0.00000000	      0.00000000
      6.29892857	     -4.78452061	     -4.46478121	     -9.12439717	      1.01457680	      0.92147878	      0.44378818	     22.91019213	      0.34375255	    -14.83719843	      7.65531918	      7.65531918	     -1.86111815	     11.01495580	      1.13509590	      0.64151752	     -3.08114840	    -12.02208501	     15.28637543	     15.28637543	     19.69654602	     -9.43600267	     -2.32486258	    -10.48510513	      5.92312789	      1.45287306	    -18.63918412	    -11.88865425	    -10.78470069	     31.59976510	     46.24498474	      0.00000000	      0.00000000	     34.55501096	    -21.13686238	     -9.97055059	     78.21502488	     47.51409129	      0.00000000	      0.00000000
      6.31771429	     -4.77640197	     -4.45352822	     -9.26669525	      1.01627934	      0.92037454	      0.44723282	     22.81565039	      0.58086852	    -14.35251608	      7.97092250	      7.97092250	     -2.51893638	     10.22087499	     -1.96437314	     -0.22799451	     -3.17336098	    -12.36129756	     14.76548913	     14.76548913	     19.99503393	     -8.95355289	     -2.43188273	    -10.41111175	      6.10812786	      1.30904636	    -18.34512786	    -11.81986312	    -11.30241387	     32.01118869	     46.25295452	      0.00000000	      0.00000000	     34.35922232	    -21.20661191	    -10.71323962	     79.25908908	     47.62530221	      0.00000000	      0.00000000
      6.33650000	     -4.74431321	     -4.52968259	     -9.37211538	      1.01820522	      0.91961656	      0.45083704	     22.82941339	      0.79586461	    -14.06435352	      8.94762115	      8.94762115	     -2.19590979	      9.48511825	     -2.76935202	     -1.12982978	     -3.35050016	    -12.54818872	     14.26899222	     14.26899222	     20.21514045	     -8.65549353	     -2.35685577	    -10.34660970	      6.40444657	      1.43198434	    -17.94769322	    -11.86596593	    -11.36809803	     32.21357507	     46.25034901	      0.00000000	      0.00000000	     34.42513748	    -21.12641757	    -10.87044178	     79.58002876	     47.64766919	      0.00000000	      0.00000000
      6.35528571	     -4.70762844	     -4.65025818	     -9.41555643	      1.02030143	      0.91900491	      0.45458802	     22.87253412	      1.02663499	    -13.65242835	     10.18091648	     10.18091648	     -1.90327858	      8.31138250	     -3.80967124	     -1.98665955	     -3.60735769	    -12.72441467	     13.88849655	     13.88849655	     20.45005777	     -8.35940425	     -2.23628460	    -10.29964668	      6.75647463	      1.49059031	    -17.37968609	    -11.97796916	    -11.49216670	     32.55925064	     46.24712988	      0.00000000	      0.00000000	     34.30457710	    -21.00052098	    -11.13641797	     79.96469825	     47.67636101	      0.00000000	      0.00000000
      6.37407143	     -4.74519113	     -4.71565852	     -9.45691589	      1.02250638	      0.91845737	      0.45876244	     22.85744935	      1.39386977	    -12.37463124	     11.10915385	     11.10915385	     -2.62192598	      5.47397805	     -7.25657193	     -2.57623783	     -3.93195892	    -13.13066227	     13.90931361	     13.90931361	     20.98497855	     -7.69505034	     -1.56146841	    -10.19132964	      6.99647115	      1.02644430	    -16.42573340	    -12.04989554	    -12.15198499	     33.53577862	     46.24506606	      0.00000000	      0.00000000	     33.34514441	    -21.01220710	    -12.67189562	     81.55864790	     47.82756091	      0.00000000	      0.00000000
      6.39285714	     -4.65491825	     -4.90243414	     -9.39083613	      1.02496718	      0.91847889	      0.46281653	     22.71878018	      1.64900759	    -12.29387808	     12.34169815	     12.34169815	     -2.10672041	      4.71297863	     -7.81941110	     -3.32612685	     -4.32461172	    -13.17676224	     13.86191645	     13.86191645	     21.05696098	     -7.61802620	     -1.38404842	    -10.19218854	      7.40964313	      1.14003695	    -15.59183621	    -12.28578744	    -12.24336477	     33.86522831	     46.24272181	      0.00000000	      0.00000000	     33.09276430	    -20.80315707	    -12.69968527	     81.55158128	     47.83086360	      0.00000000	      0.00000000
      6.41164286	     -4.69024102	     -4.90808904	     -9.36125393	      1.02733229	      0.91848274	      0.46718294	     22.89171633	      1.81807194	    -11.61311023	     13.80702076	     13.80702076	     -1.56938719	      3.08937019	     -8.38954220	     -3.75046171	     -4.61884690	    -13.31456647	     14.12592700	     14.12592700	     21.20569022	     -7.42940993	     -0.94155734	    -10.02193967	      7.54678487	      0.99332409	    -14.49452348	    -12.44767783	    -12.58209207	     34.55500737	     46.23987091	      0.00000000	      0.00000000	     32.50711624	    -20.68157436	    -13.17936442	     81.78866948	     47.87116305	      0.00000000	      0.00000000
      6.43042857	     -4.66995933	     -5.08460126	     -9.25103929	      1.02984365	      0.91891825	      0.47167341	     22.68298978	      2.18041725	    -11.23435945	     14.73564387	     14.73564387	     -1.02124553	      1.99038821	     -8.59242951	     -4.02242633	     -5.17539941	    -13.37258902	     14.85249784	     14.85249784	     21.40199629	     -7.38657033	     -0.43420432	     -9.94298588	      7.88843170	      0.78039131	    -13.33157769	    -12.68983651	    -13.08688217	     35.36919087	     46.24091828	      0.00000000	      0.00000000	     31.67905390	    -20.52241886	    -13.78498925	     82.08264372	     47.92079075	      0.00000000	      0.00000000
      6.44921429	     -4.56444877	     -5.21836295	     -9.15582409	      1.03257259	      0.91987760	      0.47625028	     22.12404946	      2.48055533	    -11.21000162	     15.17415530	     15.17415530	     -0.48511414	      1.85943122	     -8.81263992	     -4.44403369	     -5.64369562	    -13.36142702	     15.41353535	     15.41353535	     21.14918358	     -7.57575011	     -0.29928375	     -9.93020369	      8.12494064	      1.04652708	    -12.18959099	    -12.98721912	    -13.18539083	     35.83945599	     46.23613887	      0.00000000	      0.00000000	     31.07985647	    -19.99269120	    -13.64662407	     81.94529565	     47.90632592	      0.00000000	      0.00000000
